<?xml version="1.0" encoding="utf-8"?>
<!-- Generator: Adobe Illustrator 27.9.0, SVG Export Plug-In . SVG Version: 6.00 Build 0)  -->
<svg version="1.1" id="Layer_1" xmlns="http://www.w3.org/2000/svg" xmlns:xlink="http://www.w3.org/1999/xlink" x="0px" y="0px"
	 viewBox="0 0 406.3 106.4" style="enable-background:new 0 0 406.3 106.4;" xml:space="preserve">
<style type="text/css">
	.st0{fill:#D40000;}
	.st1{fill:#FFFFFF;}
</style>
<rect class="st0" width="406.3" height="106.4"/>
<polygon class="st1" points="17.4,16.2 76.2,16.2 76.2,23.9 28.9,81.8 77.3,81.8 77.3,90.2 16.3,90.2 16.3,82.6 63.6,24.7 
	17.4,24.7 "/>
<path class="st1" d="M111.4,16.3h11.5l28.5,74h-10.5l-6.8-19h-33.7l-6.9,19H82.8L111.4,16.3z M117.1,26.2L103.4,63h27.5L117.1,26.2z
	"/>
<path class="st1" d="M162.2,16.3h25.9c7.7,0,13.7,1.6,17.8,4.7c4.2,3.2,6.5,8.3,6.2,13.5c0.2,3.9-0.9,7.7-3.2,10.8
	c-2.4,2.8-5.8,4.6-9.4,5c4.5,0.8,8.6,3.1,11.6,6.6c2.9,3.6,4.3,8.1,4.1,12.6c0.3,5.9-2.2,11.5-6.8,15.2c-4.5,3.6-11,5.4-19.4,5.4
	h-26.8L162.2,16.3L162.2,16.3z M172.3,24.5v22.3h15c4.9,0,8.6-0.9,11-2.8c2.5-2,3.9-5.2,3.6-8.4c0.2-3.2-1.1-6.3-3.6-8.4
	c-2.4-1.8-6.1-2.8-11-2.8h-15V24.5z M172.3,54.9V82h16.2c5.4,0,9.5-1.1,12.1-3.3c2.6-2.2,3.9-5.7,3.9-10.2c0-4.6-1.3-8-3.9-10.2
	C198,56.1,194,55,188.5,55L172.3,54.9L172.3,54.9z"/>
<path class="st1" d="M231.5,16.3h25.9c7.7,0,13.6,1.6,17.8,4.7c4.2,3.2,6.5,8.3,6.3,13.5c0.2,3.9-0.9,7.7-3.2,10.8
	c-2.4,2.8-5.7,4.6-9.4,5c4.5,0.8,8.6,3.1,11.6,6.6c2.9,3.6,4.3,8.1,4.1,12.6c0.3,5.9-2.2,11.5-6.8,15.2c-4.5,3.6-11,5.4-19.5,5.4
	h-26.8L231.5,16.3L231.5,16.3z M241.6,24.5v22.3h15c4.9,0,8.6-0.9,11-2.8c2.5-2,3.9-5.2,3.6-8.4c0.2-3.2-1.1-6.3-3.6-8.4
	c-2.4-1.8-6.1-2.8-11-2.8h-15V24.5z M241.6,54.9V82h16.2c5.4,0,9.4-1.1,12.1-3.3c2.6-2.2,3.9-5.7,3.9-10.2c0-4.6-1.3-8-3.9-10.2
	s-6.6-3.3-12.1-3.3L241.6,54.9L241.6,54.9z"/>
<polygon class="st1" points="330.1,16.2 341.2,16.2 358.8,42.8 376.5,16.2 387.3,16.2 364.1,50.9 390.1,90.2 379,90.2 358.5,59.2 
	337.9,90.2 327.1,90.2 353.2,51.2 "/>
<rect x="300.7" y="16.2" class="st1" width="10.1" height="74"/>
</svg>
