<?xml version="1.0" encoding="utf-8"?>
<!-- Generator: Adobe Illustrator 19.2.1, SVG Export Plug-In . SVG Version: 6.00 Build 0)  -->
<svg version="1.1" id="Layer_1" xmlns="http://www.w3.org/2000/svg" xmlns:xlink="http://www.w3.org/1999/xlink" x="0px" y="0px"
	 width="423.5px" height="186px" viewBox="0 0 423.5 186" style="enable-background:new 0 0 423.5 186;" xml:space="preserve">
<style type="text/css">
	.st0{fill:#F38B00;}
	.st1{fill:#009BDE;}
</style>
<g>
	<g>
		<g>
			<path class="st0" d="M131.6,131.8h-16.8l14.5-29.3h0.2L131.6,131.8L131.6,131.8z M132.4,145l1,11.6h18.4l-6.1-67.7h-27.4
				l-34.7,67.7h18.8l5.8-11.6L132.4,145L132.4,145z"/>
			<polygon class="st0" points="177.6,127 180.3,127 193.5,109.2 210.5,109.2 192.3,132 203.5,156.6 185.4,156.6 178.1,137.4 
				175.4,137.4 171.3,156.6 155.8,156.6 170.1,88.9 185.7,88.9 			"/>
			<path class="st0" d="M230.4,137c5.1,0,8.4,0.4,7.6,4.3c-1.1,5-3.2,5.8-9.7,5.8c-2.4,0-6.8,0-5.7-5.1
				C223.5,137.7,226.6,137,230.4,137L230.4,137z M234.7,156.6h15.5l6.3-29.6c3.5-16.3-2.8-18.3-18.7-18.3c-11.1,0-21.8-0.1-25,14.6
				h15.5c0.9-4.3,3.5-5.1,7.4-5.1c6.8,0,6.5,2.8,5.5,7.2l-1.6,7.5h-0.7c-0.6-5.4-7.4-5.3-11.8-5.3c-11.2,0-17.9,3.5-20.3,14.9
				c-2.6,12.1,3.2,14.7,14,14.7c5.4,0,12.7-1.1,15.2-7.6h0.5L234.7,156.6L234.7,156.6z"/>
			<path class="st0" d="M281.6,109.2l-1.4,6.7h0.6c3.1-5.6,9.2-7.2,14.5-7.2c6.7,0,13.3,1.2,12.4,9.3h0.7c2.3-6.8,9.2-9.3,15.2-9.3
				c10.9,0,15.6,4.5,13.2,15.5l-6.9,32.4h-15.5l5.8-27.4c0.8-5,1.6-8.6-4.4-8.6s-8.1,4-9.1,9.1l-5.7,26.9h-15.5l6.1-28.7
				c0.7-4.3,1.1-7.3-4.3-7.3c-6.4,0-8.3,3.4-9.5,9.1l-5.7,26.9h-15.5l10.1-47.4L281.6,109.2L281.6,109.2z"/>
			<path class="st0" d="M361.2,137c5,0,8.4,0.4,7.6,4.3c-1,5-3.2,5.8-9.7,5.8c-2.3,0-6.8,0-5.7-5.1C354.3,137.7,357.4,137,361.2,137
				L361.2,137z M365.5,156.6H381l6.3-29.6c3.5-16.3-2.8-18.3-18.7-18.3c-11.1,0-21.9-0.1-25,14.6h15.5c0.9-4.3,3.5-5.1,7.4-5.1
				c6.8,0,6.5,2.8,5.5,7.2l-1.4,7.5h-0.7c-0.6-5.4-7.4-5.3-11.8-5.3c-11.2,0-17.9,3.5-20.3,14.9c-2.6,12.1,3.2,14.7,14,14.7
				c5.4,0,12.7-1.1,15.3-7.6h0.5L365.5,156.6L365.5,156.6z"/>
			<path class="st0" d="M403.4,156.6h-15.5l10-47.4h15.5L403.4,156.6L403.4,156.6z"/>
		</g>
		<path class="st1" d="M91.5,173C57.1,162.5,32,130.7,32,93.1C32,55,57.6,22.9,92.6,12.8c3.6-1,2.6-3.4-1.7-3.4
			C44.4,9.4,6.6,46.9,6.6,93.1s37.7,83.6,84.3,83.6C95.2,176.7,95.4,174.2,91.5,173z"/>
		<path class="st1" d="M48,112.6c-0.2-2.2-0.4-4.5-0.4-6.8c0-36.7,29.7-66.4,66.4-66.4c34.7,0,45.1,15.5,46.4,14.5
			c1.4-1.1-12.6-31.8-53.3-31.8c-36.7,0-66.4,29.7-66.4,66.4c0,8.5,1.6,16.6,4.5,24C46.4,115.7,48.3,115.7,48,112.6z"/>
		<path class="st1" d="M75.8,64.8c17.2-7.5,38.9-7.7,60.2-0.3c14.3,5,22.6,12.1,23.3,11.8c1.1-0.5-8.3-15.5-25.4-21.9
			c-20.7-7.8-42.9-3.7-59.1,9C73,64.8,73.7,65.7,75.8,64.8z"/>
		<path class="st0" d="M416.9,96.1c0,4.8-3.9,8.7-8.7,8.7c-4.8,0-8.7-3.9-8.7-8.7c0-4.8,3.9-8.7,8.7-8.7S416.9,91.3,416.9,96.1z"/>
	</g>
</g>
</svg>
