<svg width="1696" height="406" viewBox="0 0 1696 406" fill="none" xmlns="http://www.w3.org/2000/svg">
<path d="M0 9.05215C37.18 6.29215 71.41 8.48215 105.69 12.3821C149.9 17.4221 191.51 30.5021 230.64 51.0021C243.02 57.4921 250.08 53.8121 255.88 42.9421C261.33 32.7421 264.59 21.9821 265.4 10.4721C266.19 -0.697854 271.07 -3.23785 279.91 4.33215C314.92 34.3421 336.99 69.9721 329.45 117.912C327.55 129.972 332.03 134.862 344.33 134.842C362.99 134.822 380.02 140.222 394.58 152.162C399.48 156.182 407.53 159.472 404.2 167.072C401.31 173.662 393.34 171.132 387.78 170.242C347.11 163.702 306.64 166.632 266.62 174.022C175.79 190.792 102.46 235.332 49.05 310.402C48.18 311.622 46.66 312.382 44.43 314.182C38.38 305.062 43.62 296.962 46.11 289.602C65.57 232.082 103.69 189.562 156.52 159.552C174.79 149.182 191.23 135.712 211.59 128.022C188.57 123.912 167.31 128.872 147.05 138.222C121.44 150.042 121.5 150.412 111.68 124.682C93.75 77.7021 60.06 45.1021 15.64 22.2221C11.76 20.2221 7.92 18.1221 4.28 15.7521C3.09 14.9821 2.59 13.2021 0.01 9.05215H0Z" fill="#57ABEB"/>
<path d="M1388.92 368.384C1390.8 368.384 1392.27 370.039 1391.69 371.828C1390.54 375.364 1388.27 378.942 1384.88 382.56C1377.87 390.188 1368.07 394.002 1355.46 394.002C1345.06 394.002 1335.88 390.788 1327.93 384.359C1319.98 377.931 1316 367.472 1316 352.984C1316 339.408 1319.58 328.997 1326.73 321.753C1333.93 314.509 1343.26 310.887 1354.71 310.887C1361.52 310.887 1367.64 312.11 1373.1 314.557C1378.55 317.004 1383.05 320.866 1386.6 326.143C1389.8 330.796 1391.88 336.193 1392.83 342.334C1393.29 345.362 1393.52 349.512 1393.53 354.783C1393.53 356.499 1392.13 357.878 1390.41 357.878H1337.53C1337.83 365.745 1340.41 371.262 1345.26 374.429C1348.21 376.396 1351.76 377.379 1355.91 377.379C1360.32 377.379 1363.89 376.18 1366.64 373.781C1367.75 372.824 1368.77 371.592 1369.68 370.084C1370.3 369.068 1371.37 368.384 1372.56 368.384H1388.92ZM1371.3 344.349C1370.95 338.928 1369.22 334.826 1366.12 332.044C1363.07 329.213 1359.27 327.798 1354.71 327.798C1349.76 327.798 1345.91 329.285 1343.16 332.259C1340.46 335.234 1338.76 339.264 1338.06 344.349H1371.3Z" fill="#57ABEB"/>
<path d="M1459.16 391.411H1412.18C1410.45 391.411 1409.04 390.005 1409.04 388.271V288.481C1409.04 286.747 1410.45 285.341 1412.18 285.341H1462.76C1476.32 285.533 1485.92 289.299 1491.57 296.639C1494.97 301.148 1496.67 306.545 1496.67 312.83C1496.67 319.306 1494.97 324.512 1491.57 328.445C1489.67 330.652 1486.87 332.667 1483.17 334.49C1488.82 336.457 1493.07 339.575 1495.92 343.845C1498.82 348.115 1500.28 353.296 1500.28 359.389C1500.28 365.673 1498.62 371.31 1495.32 376.3C1493.22 379.61 1490.6 382.392 1487.45 384.647C1483.89 387.238 1479.69 389.013 1474.84 389.972C1470.04 390.932 1464.81 391.411 1459.16 391.411ZM1458.63 344.709H1431.1V372.989H1458.26C1463.11 372.989 1466.89 372.366 1469.59 371.118C1474.49 368.816 1476.94 364.402 1476.94 357.878C1476.94 352.361 1474.57 348.571 1469.81 346.508C1467.16 345.356 1463.44 344.757 1458.63 344.709ZM1470.11 324.488C1473.12 322.761 1474.62 319.666 1474.62 315.205C1474.62 310.263 1472.61 307.001 1468.61 305.418C1465.16 304.315 1460.76 303.763 1455.41 303.763H1431.1V327.15H1458.26C1463.11 327.15 1467.06 326.263 1470.11 324.488Z" fill="#57ABEB"/>
<path d="M1563.75 353.272H1540.26V388.271C1540.26 390.005 1538.86 391.411 1537.12 391.411H1520.45C1518.71 391.411 1517.3 390.005 1517.3 388.271V288.481C1517.3 286.747 1518.71 285.341 1520.45 285.341H1565.47C1576.58 285.341 1585.43 288.075 1592.03 293.544C1598.63 299.013 1601.94 307.481 1601.94 318.947C1601.94 331.468 1598.63 340.319 1592.03 345.5C1585.43 350.681 1576 353.272 1563.75 353.272ZM1574.55 331.18C1577.55 328.637 1579.05 324.608 1579.05 319.091C1579.05 313.574 1577.53 309.64 1574.48 307.289C1571.47 304.938 1567.25 303.763 1561.8 303.763H1540.26V334.994H1561.8C1567.25 334.994 1571.5 333.723 1574.55 331.18Z" fill="#57ABEB"/>
<path d="M1696 300.982C1696 302.717 1694.59 304.123 1692.86 304.123H1640.55V328.517H1685.96C1687.69 328.517 1689.1 329.923 1689.1 331.658V343.799C1689.1 345.533 1687.69 346.939 1685.96 346.939H1640.55V388.271C1640.55 390.005 1639.15 391.411 1637.41 391.411H1620.74C1619 391.411 1617.6 390.005 1617.6 388.271V288.625C1617.6 286.891 1619 285.485 1620.74 285.485H1692.86C1694.59 285.485 1696 286.891 1696 288.625V300.982Z" fill="#57ABEB"/>
<path d="M306.06 395.682V329.402C306.06 326.642 303.82 324.402 301.06 324.402H241.81C239.05 324.402 236.81 326.642 236.81 329.402V395.682C236.81 398.442 234.57 400.682 231.81 400.682H205.14C202.38 400.682 200.14 398.442 200.14 395.682V234.802C200.14 232.042 202.38 229.802 205.14 229.802H231.81C234.57 229.802 236.81 232.042 236.81 234.802V289.952C236.81 292.712 239.05 294.952 241.81 294.952H301.06C303.82 294.952 306.06 292.712 306.06 289.952V234.802C306.06 232.042 308.3 229.802 311.06 229.802H337.85C340.61 229.802 342.85 232.042 342.85 234.802V395.682C342.85 398.442 340.61 400.682 337.85 400.682H311.06C308.3 400.682 306.06 398.442 306.06 395.682Z" fill="#57ABEB"/>
<path d="M480.57 334.832V234.802C480.57 232.042 482.81 229.802 485.57 229.802H513.2C515.96 229.802 518.2 232.042 518.2 234.802V334.832C518.2 352.992 515.27 367.142 509.42 377.262C498.52 395.812 477.72 405.082 447.02 405.082C416.32 405.082 395.48 395.812 384.5 377.262C378.65 367.142 375.72 352.992 375.72 334.832V234.802C375.72 232.042 377.96 229.802 380.72 229.802H408.35C411.11 229.802 413.35 232.042 413.35 234.802V334.832C413.35 346.582 414.79 355.162 417.68 360.572C422.17 370.152 431.95 374.952 447.02 374.952C462.09 374.952 471.75 370.162 476.24 360.572C479.13 355.162 480.57 346.582 480.57 334.832Z" fill="#57ABEB"/>
<path d="M658.2 365.552H595.95C593.86 365.552 591.99 366.852 591.26 368.812L580.66 397.412C579.93 399.372 578.06 400.672 575.97 400.672H545.69C542.17 400.672 539.75 397.122 541.04 393.842L604.24 232.962C604.99 231.052 606.84 229.792 608.89 229.792H646.48C648.54 229.792 650.39 231.052 651.14 232.972L713.86 393.852C715.14 397.132 712.72 400.672 709.2 400.672H677.46C675.33 400.672 673.43 399.322 672.73 397.302L662.93 368.912C662.23 366.892 660.34 365.542 658.2 365.542V365.552ZM648.47 329.452L631.96 282.162C630.41 277.722 624.13 277.682 622.54 282.112L605.49 329.402C604.31 332.662 606.73 336.102 610.19 336.102H643.76C647.2 336.102 649.62 332.702 648.48 329.452H648.47Z" fill="#57ABEB"/>
<path d="M869.68 234.802V255.062C869.68 257.822 867.44 260.062 864.68 260.062H821.66C818.9 260.062 816.66 262.302 816.66 265.062V395.682C816.66 398.442 814.42 400.682 811.66 400.682H784.39C781.63 400.682 779.39 398.442 779.39 395.682V265.062C779.39 262.302 777.15 260.062 774.39 260.062H731.13C728.37 260.062 726.13 257.822 726.13 255.062V234.802C726.13 232.042 728.37 229.802 731.13 229.802H864.68C867.44 229.802 869.68 232.042 869.68 234.802Z" fill="#57ABEB"/>
<path d="M999.7 334.832V234.802C999.7 232.042 1001.94 229.802 1004.7 229.802H1034.28C1037.04 229.802 1039.28 232.042 1039.28 234.802V334.832C1039.28 352.992 1036.2 367.142 1030.05 377.262C1018.59 395.812 996.71 405.082 964.43 405.082C932.15 405.082 910.23 395.812 898.68 377.262C892.53 367.142 889.45 352.992 889.45 334.832V234.802C889.45 232.042 891.69 229.802 894.45 229.802H924.03C926.79 229.802 929.03 232.042 929.03 234.802V334.832C929.03 346.582 930.55 355.162 933.58 360.572C938.3 370.152 948.58 374.952 964.43 374.952C980.28 374.952 990.43 370.162 995.15 360.572C998.18 355.162 999.7 346.582 999.7 334.832Z" fill="#57ABEB"/>
<path d="M1148.89 405.432C1123.56 405.432 1104.2 398.782 1090.82 385.492C1072.86 369.182 1063.89 345.692 1063.89 315.012C1063.89 284.332 1072.87 260.212 1090.82 244.522C1104.2 231.232 1123.56 224.582 1148.89 224.582C1174.22 224.582 1193.57 231.232 1206.96 244.522C1224.83 260.212 1233.77 283.702 1233.77 315.012C1233.77 346.322 1224.83 369.192 1206.96 385.492C1193.57 398.782 1174.22 405.432 1148.89 405.432ZM1183.88 359.522C1192.46 349.092 1196.75 334.252 1196.75 315.002C1196.75 295.752 1192.44 281.012 1183.82 270.542C1175.2 260.072 1163.56 254.832 1148.89 254.832C1134.22 254.832 1122.52 260.052 1113.78 270.482C1105.04 280.912 1100.68 295.752 1100.68 315.002C1100.68 334.252 1105.05 349.082 1113.78 359.522C1122.52 369.952 1134.22 375.172 1148.89 375.172C1163.56 375.172 1175.22 369.952 1183.88 359.522Z" fill="#57ABEB"/>
</svg>
