<?xml version="1.0" standalone="no"?><!DOCTYPE svg PUBLIC "-//W3C//DTD SVG 1.1//EN" "http://www.w3.org/Graphics/SVG/1.1/DTD/svg11.dtd"><svg t="1645353544631" class="icon" viewBox="0 0 4327 1024" version="1.1" xmlns="http://www.w3.org/2000/svg" p-id="1115" xmlns:xlink="http://www.w3.org/1999/xlink" width="845.1171875" height="200"><defs><style type="text/css"></style></defs><path d="M1739.616604 441.967094v2.334189l-70.798491 357.875925c-9.33434 46.678943-21.782943 65.351245-69.240755 65.351245h-21.005283c-42.010566 0-63.794717-20.227623-73.909132-60.682868l-61.461735-238.06551c-0.77766-3.111849-0.77766-3.889509-2.332982-3.889509-1.556528 0-1.556528 0.77766-2.334188 3.888302l-61.461736 238.066717c-10.113208 40.455245-31.897358 60.682868-73.909132 60.682868h-21.005283c-47.456604 0-59.906415-18.672302-69.240755-65.352453L1192.718491 695.233208c-1.195472 5.047547 0.798189-1.735245 5.984603-20.34717l7.780227-27.918491 35.907622-128.876679h17.354868l36.416 251.411321c0.77766 7.001358 2.334189 10.892075 3.88951 10.892075 1.556528 0 3.890717-3.113057 5.446037-10.892075l64.573585-261.404981c7.779019-30.342038 17.115774-33.453887 43.568302-33.453887h54.457963c26.451321 0 35.788075 3.111849 43.568301 33.453887l64.572378 261.403773c1.556528 7.780226 3.890717 10.892075 5.446038 10.892076 1.556528 0 3.111849-3.889509 3.889509-10.892076l49.01434-329.089207c0.77766-7.002566 6.223698-14.003925 14.003924-14.003925h75.464453c8.557887 0 15.559245 7.001358 15.559245 15.559245z m379.539321 407.667925c0 8.557887-7.002566 15.559245-15.560453 15.559245h-66.128906c-8.557887 0-15.559245-7.001358-15.559245-15.559245v-12.448604c-35.788075 21.784151-72.353811 34.231547-109.697208 34.231547-64.573585 0-134.593208-24.896-134.593207-129.923622v-3.113057c0-88.690717 54.460377-134.592 189.830037-134.592h49.01434v-34.231547c0-50.56966-22.561811-63.017057-68.463094-63.017057-49.792 0-101.139321 3.111849-126.812981 6.223698h-3.88951c-7.780226 0-14.003925-2.334189-14.003924-13.225056v-49.792c0-8.557887 4.66717-14.003925 14.781584-16.338113 31.118491-6.223698 76.243321-12.447396 129.924831-12.447397 110.47366 0 171.157736 49.01434 171.157736 148.595925v280.077283z m-102.694642-81.690566V672.253585h-49.01434c-70.796075 0-86.356528 22.561811-86.356528 66.128906v3.113056c0 38.121057 17.115774 48.234264 56.015698 48.234264 28.007849 0 56.793358-9.33434 79.35517-21.784151z m305.630189 80.911698c0 8.557887-6.223698 16.338113-14.781585 16.338113h-72.353812c-8.557887 0-15.559245-7.780226-15.559245-16.338113V288.704c0-8.557887 7.001358-15.560453 15.559245-15.560453h72.353812c8.557887 0 14.780377 7.002566 14.780377 15.560453v560.152151z m453.448453 7.002566c0 4.66717-4.668377 9.335547-10.892076 9.335547h-94.914415c-8.557887 0-17.893434-8.557887-22.561811-15.559245l-122.144604-177.382642v176.603774c0 8.557887-7.001358 16.338113-15.559245 16.338113h-71.576151c-8.557887 0-15.559245-7.780226-15.559246-16.338113V288.704c0-8.557887 7.001358-15.560453 15.559246-15.560453h71.576151c8.557887 0 15.559245 7.002566 15.559245 15.560453v324.42083l133.035472-177.381434c5.446038-7.001358 13.226264-9.335547 17.894641-9.335547h87.135396c7.779019 0 11.669736 3.111849 11.669736 8.557887 0 2.334189-0.778868 4.668377-3.111849 7.780226l-156.377358 192.163019 157.932679 214.726038c1.556528 2.332981 2.334189 3.888302 2.334189 6.223698z m176.483018-503.36c0 8.557887-7.001358 15.559245-15.559245 15.559245h-75.464453c-8.557887 0-16.338113-7.001358-16.338113-15.559245v-68.463094c0-8.557887 7.780226-15.560453 16.338113-15.560453h75.464453c8.557887 0 15.560453 7.002566 15.560453 15.560453v68.463094z m-2.332981 496.357434c0 8.557887-7.001358 16.338113-15.559245 16.338113h-71.576151c-8.557887 0-15.559245-7.780226-15.559245-16.338113V441.967094c0-8.557887 7.001358-15.559245 15.559245-15.559245h71.576151c8.557887 0 15.559245 7.001358 15.559245 15.559245V848.857358z m458.11683 0c0 8.557887-7.002566 16.338113-15.560452 16.338113h-71.574944c-8.557887 0-15.559245-7.780226-15.559245-16.338113V595.231396c0-67.685434-6.223698-87.134189-66.130113-87.134188-26.451321 0-55.23683 10.892075-87.911849 28.006641V848.857358c0 8.557887-7.002566 16.338113-15.560453 16.338114h-71.574944c-8.557887 0-15.559245-7.780226-15.559245-16.338114V441.967094c0-8.557887 7.001358-15.559245 15.559245-15.559245h67.685434c8.557887 0 15.559245 7.001358 15.559246 15.559245v16.338114c45.123623-28.785509 74.686792-37.343396 126.03532-37.343397 112.030189 0 134.592 75.46566 134.592 174.269585V848.857358z m478.344453-368.766793c0 11.669736-3.111849 13.225057-12.448603 17.115774l-25.672453 10.113208c12.447396 17.894642 19.448755 35.010415 19.448754 62.239396v5.446038c0 97.248604-66.906566 141.594566-184.384 141.594566-41.232906 0-69.240755-7.002566-84.8-13.226265-9.336755 6.223698-13.226264 13.226264-13.226264 20.227623 0 15.560453 8.557887 21.784151 26.451321 25.67366l91.802566 21.784151c105.807698 24.896 174.270792 41.232906 174.270792 124.478793v5.446038c0 79.353962-58.348679 122.143396-190.607698 122.143396-126.035321 0-192.941887-47.456604-192.941886-129.145962v-7.001359c0-31.898566 14.781585-63.017057 39.677584-85.578868-21.784151-16.338113-35.009208-43.568302-35.009207-71.576151v-0.77766c0-24.117132 10.113208-48.235472 31.118491-63.017057-23.339472-24.117132-31.897358-52.124981-31.897359-91.024905v-5.446038c0-77.798642 50.56966-143.149887 185.16166-143.149887h182.049812a20.91834 20.91834 0 0 1 21.00649 21.005283v32.676226zM3766.339623 577.337962v-6.223698c0-37.343396-16.338113-66.128906-83.245887-66.128906-66.128906 0-84.02234 29.56317-84.02234 66.128906v6.223698c0 28.785509 11.669736 61.461736 84.02234 61.461736 64.573585 0 83.245887-22.561811 83.245887-61.461736z m8.557886 323.644378v-5.446038c0-17.115774-10.114415-27.230189-91.803773-46.680151l-69.240755-16.338113c-11.669736 16.338113-19.449962 26.452528-19.449962 54.460377v7.001359c0 31.897358 19.449962 51.347321 92.581434 51.34732 74.686792 0 87.913057-16.338113 87.913056-44.344754zM374.123472 607.081057c0 78.577509-49.01434 162.599849-204.611623 162.599849-58.348679 0-100.360453-5.446038-137.703849-14.003925-7.780226-1.555321-14.781585-7.001358-14.781585-15.559245v-56.015698c0-8.557887 7.001358-14.781585 14.780377-14.781585h1.557736c31.118491 3.889509 108.91834 7.780226 137.703849 7.780226 69.240755 0 90.246038-24.896 90.246038-70.019622 0-30.342038-14.780377-45.901283-66.128906-76.243321l-102.694641-61.460528C20.138264 426.587774 0.688302 381.464151 0.688302 327.003774c0-85.578868 49.790792-147.818264 194.497207-147.818265 51.347321 0 122.922264 7.779019 149.373585 14.003925 7.780226 1.555321 14.005132 7.001358 14.005132 14.780377v57.572227c0 7.780226-5.446038 14.003925-13.226264 14.003924h-1.556528c-51.347321-4.668377-102.694642-7.780226-153.263094-7.780226-57.572226 0-81.690566 20.227623-81.690566 55.238038 0 25.672453 13.227472 41.232906 63.795924 69.240754l93.359094 52.124981c85.578868 47.456604 108.140679 97.248604 108.14068 158.71034z m433.99849 147.040603c0 4.66717-4.66717 9.33434-10.892075 9.33434h-94.913208c-8.559094 0-17.895849-8.556679-22.563019-15.559245l-122.143396-177.381434v176.603773c0 8.557887-7.003774 16.338113-15.560453 16.338114h-71.574943c-8.557887 0-15.560453-7.780226-15.560453-16.338114V186.965736c0-8.557887 7.002566-15.559245 15.560453-15.559245h71.574943c8.557887 0 15.559245 7.001358 15.559246 15.559245v324.422038L690.645736 334.007547c5.446038-7.001358 13.226264-9.335547 17.893434-9.335547h87.135396c7.780226 0 11.669736 3.111849 11.669736 8.557887 0 2.334189-0.77766 4.66717-3.111849 7.780226L647.856302 533.171925l157.932679 214.726037c1.555321 2.332981 2.332981 3.888302 2.332981 6.223698z m434.777359-416.225811c0 1.556528 0 3.113057-0.777661 4.668377L1112.19683 796.911094c-24.117132 84.8-52.902642 122.143396-158.710339 122.143397-25.672453 0-64.572377-4.66717-82.467019-10.113208-8.557887-2.334189-16.338113-5.446038-16.338114-13.226264v-49.790793c0-8.557887 7.002566-14.003925 15.560453-14.003924h1.556529c21.784151 0.77766 66.128906 4.668377 87.911849 4.668377 33.453887 0 50.56966-9.336755 61.461736-49.792l6.223698-23.339471h-11.669736c-22.561811 0-50.56966-5.446038-67.685434-64.573585l-101.916981-356.319397c-0.77766-2.334189-0.77766-3.889509-0.777661-5.446037 0-7.780226 4.668377-12.447396 14.782793-12.447397h78.576302c7.002566 0 13.226264 7.001358 14.781585 14.003925l78.577509 316.641811c3.111849 13.226264 6.223698 17.115774 10.892075 17.115774h7.001359l84.023547-334.536453c1.555321-7.001358 7.779019-13.225057 15.559245-13.225057h79.35517c7.780226 0 14.003925 6.223698 14.003925 13.225057z" fill="#0068AF" p-id="1116"></path><path d="M3643.813434 155.203623c21.086189-4.692528 42.908981-7.631698 64.788528-8.777661 219.435472-11.499472 406.839547 158.192302 418.404227 378.855849 3.95834 75.522415-14.055849 150.439849-50.383698 215.553208 154.855849-55.217509 259.634717-206.250264 250.596226-378.724227-11.004377-209.968302-189.681509-371.759094-398.479698-360.815094-114.165132 5.982189-218.470642 63.932377-284.925585 153.907925z" fill="#D8D8D8" p-id="1117"></path></svg>