<?xml version="1.0" encoding="utf-8"?>
<!-- Generator: Adobe Illustrator 23.1.0, SVG Export Plug-In . SVG Version: 6.00 Build 0)  -->
<svg version="1.1" id="Layer_1" xmlns="http://www.w3.org/2000/svg" xmlns:xlink="http://www.w3.org/1999/xlink" x="0px" y="0px"
	 viewBox="0 0 300 309" style="enable-background:new 0 0 300 309;" xml:space="preserve">
<style type="text/css">
	.st0{fill:#00A1FF;}
	.st1{fill:#00C4D6;}
	.st2{fill:#006EFF;}
</style>
<title>aws-cloud</title>
<desc>Created with Sketch.</desc>
<g id="Page-1">
	<g id="aws-cloud">
		<g id="Fill-10">
			<g id="tencent-cloud" transform="translate(47.000000, 73.000000)">
				<g id="Group" transform="translate(0.000000, 119.000000)">
					<path id="Path" d="M143,18.1c0-0.1-0.1-0.2-0.3-0.1c-1.8,2.1-4.7,3.7-8.1,3.7c-5.2,0-8.6-3.6-8.6-9.2c0-5.7,3.2-9.2,8.4-9.2
						c3,0,6.1,1.4,8,3.4c0.1,0.1,0.3,0,0.3-0.1V3.7c-2.1-1.9-5.2-3.1-8.3-3.1c-3.2,0-6.1,1.2-8,3.3c-1.9,2.1-3,5.1-3,8.6
						c0,7.1,4.5,11.9,11.1,11.9c3.2,0,6.3-1.2,8.4-3.2V18.1L143,18.1z"/>
					<polygon points="0.5,1.2 0.5,3.7 8.3,3.7 8.3,23.8 11,23.8 11,3.7 18.9,3.7 18.9,1.2 					"/>
					<path id="Shape" d="M203,8.9c-1.4-1.5-3.8-2.1-5.4-2.1c-2.3,0-4.3,0.8-5.7,2.4c-1.5,1.5-2.2,3.8-2.2,6.3c0,6,4,8.7,8,8.7
						c2.3,0,4.2-0.8,5.4-2.3v1.9h2.7V1.1H203V8.9z M203,15.5c0,3.1-1.8,6.2-5.2,6.2c-2.6,0-5.4-1.9-5.4-6.1c0-3.1,1.6-6.4,5.2-6.4
						C201.6,9.3,203,12.6,203,15.5z"/>
					<rect id="Rectangle" x="146.6" y="1.3" width="2.7" height="22.6"/>
					<path d="M67.6,19.6c0-0.1-0.1-0.2-0.3-0.1c-1.8,1.6-4.4,2.2-5.5,2.2c-3.6,0-6-2.4-6-6.2s2.4-6.2,6-6.2c1.1,0,3.6,0.3,5.5,1.9
						c0.1,0.1,0.2,0,0.2-0.1V8.6c-1.1-0.7-3.5-1.8-5.9-1.8c-5,0-8.4,3.5-8.4,8.7s3.4,8.7,8.4,8.7c2.1,0,4.1-0.6,5.9-1.8L67.6,19.6
						L67.6,19.6z"/>
					<path d="M32.1,19.1c0-0.1-0.2-0.2-0.3-0.1c-1.2,1.5-4.1,2.9-5.8,2.9s-3.3-0.5-4.1-1.5c-1-1.1-1.6-2.6-1.6-4.1h12.7v-0.2
						c0-3.6-0.6-5.6-2.2-7.2c-1.3-1.3-3.1-2.1-5.3-2.1c-4.7,0-7.8,3.4-7.8,8.6c0.1,5.4,3.3,8.7,8.3,8.7c2.4,0,4.4-0.8,6.3-2.4
						L32.1,19.1L32.1,19.1z M30.3,14H20.2v-0.1c0.1-1.4,0.7-2.6,1.8-3.6c0.9-0.7,2.1-1.1,3.2-1.1C28.3,9.2,30.2,11,30.3,14L30.3,14z
						"/>
					<path d="M183.9,15.7c0,4.5-2.6,6.1-4.9,6.1c-2.1,0-4.5-1.5-4.5-4.3V7.3H172v10.2c0,4,2.8,6.8,6.9,6.8c2.3,0,4-0.7,5.2-2.2v1.8
						h2.4V7.3H184L183.9,15.7L183.9,15.7z"/>
					<path d="M43.6,6.8c-2.1,0-3.8,0.7-5,2V7.3H36v16.5h2.6v-9.5c0-1.5,0.5-2.9,1.3-3.8c1-0.9,2.1-1.3,3.5-1.3
						c2.1,0.1,4.1,1.4,4.1,4.3v10.1h2.7V13.5c0-2.1-0.7-3.8-1.9-4.9C47.2,7.4,45.5,6.8,43.6,6.8z"/>
					<path d="M84.7,19.1c0-0.1-0.2-0.2-0.3-0.1c-1.2,1.5-4.1,2.9-5.8,2.9c-1.7,0-3.3-0.5-4.1-1.5c-1-1.1-1.6-2.6-1.6-4.1h12.7v-0.2
						c0-3.6-0.6-5.6-2.2-7.2C82,7.6,80.2,6.8,78,6.8c-4.7,0-7.8,3.4-7.8,8.6c0.1,5.4,3.3,8.7,8.3,8.7c2.4,0,4.4-0.8,6.3-2.4
						L84.7,19.1L84.7,19.1z M82.9,14H72.8v-0.1c0.1-1.4,0.7-2.6,1.8-3.6c0.9-0.7,2.1-1.1,3.2-1.1C80.8,9.2,82.7,11,82.9,14L82.9,14z
						"/>
					<path d="M96.1,6.8c-2.1,0-3.8,0.7-5,2V7.3h-2.6v16.5H91v-9.5c0-1.5,0.5-2.9,1.3-3.8c1-0.9,2.1-1.3,3.5-1.3
						c2.1,0.1,4.1,1.4,4.1,4.3v10.1h2.6V13.5c0-2.1-0.7-3.8-1.9-4.9C99.7,7.4,98.1,6.8,96.1,6.8z"/>
					<path d="M111.3,24c1.6-0.1,3.4-0.7,3.4-0.7v-2.5c0-0.1-0.1-0.2-0.2-0.1c-0.7,0.2-2.1,0.7-2.8,0.7c-0.3,0.1-0.5,0.1-0.7-0.1
						c-0.1-0.1-0.1-0.2-0.1-0.5V9.7h4.8V7.3h-4.8V2.8h-2.7v4.4h-2.7v2.4h2.7V21c0,1,0.3,1.8,0.9,2.3C109.6,23.8,110.4,24,111.3,24z"
						/>
					<path d="M161,6.8c-4.8,0-8,3.5-8,8.7c0,5.1,3.2,8.7,8,8.7s8-3.5,8-8.7C169.1,10.4,165.8,6.8,161,6.8z M155.4,15.5L155.4,15.5
						c0-3.7,2.2-6.1,5.5-6.1c3.3,0,5.5,2.5,5.5,6.2s-2.2,6.2-5.5,6.2C157.7,21.7,155.4,19.2,155.4,15.5z"/>
				</g>
				<g transform="translate(31.000000, 0.000000)">
					<path class="st0" d="M134.3,47.5c-6-6.1-14.3-10-23.6-10c-8,0-14.9,2.8-21,7.7c-2.7,2.1-5.4,4.6-8.9,8
						c-1.8,1.6-51.7,50.2-51.7,50.2c2.7,0.4,6.2,0.4,9.5,0.5c3,0,60.5,0,62.9,0c4.8,0,8,0,11.4-0.2c7.8-0.6,15.1-3.4,21-9.2
						C147,81.6,147.2,60.6,134.3,47.5 M124.7,85.2c-2.6,2.5-7.1,5.4-14.5,5.7c-3.5,0.1-7.5,0.1-9.4,0.1H60.7
						C75.2,76.9,88,64.5,89.4,63.1c1.3-1.3,4.3-4.1,6.9-6.4c5.7-5,10.7-6.1,14.3-6c5.6,0.1,10.7,2.4,14.4,6
						C132.8,64.6,132.7,77.4,124.7,85.2"/>
					<path class="st1" d="M53.7,44.4c-5.9-4.4-12.5-6.9-19.9-6.9c-9.3,0-17.6,3.8-23.6,10c-12.8,13.1-12.7,34.1,0.5,47
						c5.3,5.2,11.7,8,18.5,9L42,91c-2.1,0-5-0.1-7.7-0.1c-7.5-0.2-12-3.1-14.5-5.7c-8-7.8-8.2-20.6-0.4-28.5c3.6-3.7,8.8-6,14.4-6
						c3.5,0,8.3,1,13.7,5.5c2.6,2.1,8.3,7.2,10.8,9.4c0.1,0.1,0.3,0.1,0.4,0l8.9-8.7c0.1-0.1,0.1-0.4,0-0.4
						C63.3,52.4,57.3,47.1,53.7,44.4"/>
					<path class="st2" d="M114.2,30.1C108,12.8,91.5,0.4,72.2,0.4c-22.3,0-40.7,16.3-44,37.5c1.8-0.3,3.6-0.4,5.5-0.4
						c2.7,0,5.2,0.3,7.5,0.9c0.1,0,0.1,0,0.1,0c3-14.3,15.7-25,30.8-25c12.6,0,23.6,7.6,28.6,18.3c0.1,0.1,0.2,0.2,0.4,0.2
						c3.8-1,8.2-1.6,12.6-1.3C114.1,30.7,114.2,30.5,114.2,30.1"/>
				</g>
			</g>
		</g>
	</g>
</g>
</svg>
